<?xml version="1.0" encoding="UTF-8"?>
<svg id="Layer_2" data-name="Layer 2" xmlns="http://www.w3.org/2000/svg"
		 viewBox="0 0 174.88 81.36">
	<defs>
		<style>
			.cls-1 {
			fill: #fff;
			}
			
			.cls-2 {
			fill: #003554;
			}
			
			.cls-3 {
			fill: #184e77;
			}
		</style>
	</defs>
	<g id="Layer_1-2" data-name="Layer 1">
		<g>
			<g>
				<path class="cls-3"
							d="M14.06,27.99c.16,1.55.1,2.84-.2,3.88-.3,1.03-.92,1.92-1.87,2.65-.95.73-2.11,1.33-3.48,1.8-1.37.47-3.22.94-5.54,1.41l-.98-5.46c2.9-.6,4.79-1.05,5.67-1.37.88-.31,1.38-.73,1.5-1.27-.88.1-1.79.16-2.73.16-1.76,0-3.22-.58-4.4-1.74C.86,26.9.19,25.39.03,23.53c-.16-2.13.36-4.01,1.58-5.65,1.21-1.63,2.78-2.49,4.7-2.57,1.94-.08,3.57.59,4.89,2.02,1.32,1.43,2.1,3.31,2.34,5.65l.52,5.03ZM4.93,23.09c.06.74.56,1.12,1.5,1.12.82,0,1.58-.05,2.3-.15l-.03-.4c-.08-.93-.31-1.63-.69-2.09-.38-.47-.86-.69-1.45-.67-.53.02-.94.24-1.24.65-.3.41-.42.93-.38,1.55Z"/>
				<path class="cls-3"
							d="M16.97,37.7l-1.29-5.4c2.53-.7,4.1-1.25,4.7-1.64.6-.39.83-1.09.69-2.08l-1.23-8.9,4.84-.74,1.23,9c.37,2.73-.14,4.79-1.52,6.19-1.38,1.4-3.85,2.59-7.43,3.58Z"/>
				<path class="cls-3"
							d="M44.63,24.21h1.5v5.58h-1.5c-1.31,0-2.42-.41-3.34-1.24-1.1.83-2.45,1.24-4.04,1.24h-2.45c-1.63,0-2.99-.49-4.07-1.47-1.08-.98-1.62-2.16-1.62-3.52v-1.95h4.53v1.05c0,.15.02.23.06.26.04.03.12.05.25.05h3.98c.55,0,.81-.19.77-.56-.02-.04-.05-.11-.08-.22-.03-.1-.05-.19-.05-.25l-2.27-9.03,4.78-1.36,2.27,9.12c.27,1.03.47,1.68.61,1.92.14.25.37.37.67.37Z"/>
				<path class="cls-3"
							d="M58.11,23.18c.04.46.14.74.31.85.16.11.54.17,1.13.17v5.58c-1.57,0-2.87-.37-3.89-1.12-1.08.74-2.4,1.12-3.95,1.12h-5.88v-5.58h5.88c.65,0,1.07-.05,1.26-.15.18-.1.26-.31.21-.62l-.34-3.82,4.9-.5.34,3.82c0,.1.01.19.03.25ZM45.98,34.51l2.88-2.95,2.91,2.95-2.91,2.92-2.88-2.92ZM52.62,34.51l2.88-2.95,2.91,2.95-2.91,2.92-2.88-2.92Z"/>
				<path class="cls-3" d="M59.24,29.79v-5.58h9.5v5.58h-9.5Z"/>
				<path class="cls-3"
							d="M84.94,18.03c1.51.79,2.56,2.05,3.14,3.8.58,1.75.49,3.42-.26,5.01-.78,1.63-1.94,2.75-3.48,3.34-1.54.59-3.1.52-4.67-.2l-3.03-1.43c-1.82.83-3.86,1.24-6.13,1.24h-2.08v-5.58h1.78c-.55-.95-.85-1.98-.9-3.09-.05-1.11.17-2.2.66-3.27.67-1.47,1.7-2.55,3.09-3.26l1.07-2.33,10.81,5.77ZM77.13,21.54c.14-.35.16-.7.05-1.04-.11-.34-.34-.6-.69-.79-.43-.21-.81-.27-1.13-.2-.33.07-.57.25-.74.54-.2.31-.26.64-.15.99.1.35.36.63.77.84l1.35.68c.08-.1.27-.44.55-1.02ZM83.5,24.7c.16-.27.18-.58.06-.95-.12-.36-.39-.65-.8-.85l-.77-.4c-.12.43-.28.88-.46,1.33-.14.35-.33.7-.55,1.06l.67.34c.33.19.67.23,1.04.12.37-.1.63-.32.8-.65Z"/>
				<path class="cls-3"
							d="M24.9,61.44v5.58h-1.04c-.08,1.88-.78,3.4-2.08,4.56-1.31,1.16-3.41,2.08-6.31,2.76-1.55.39-2.96.49-4.23.28-1.27-.21-2.39-.6-3.38-1.19-.99-.59-1.81-1.41-2.45-2.45-.64-1.04-1.1-2.21-1.38-3.51-.28-1.29-.33-2.75-.17-4.37.16-1.62.54-3.31,1.13-5.07l4.66,1.86c-1.14,3.39-1.29,5.89-.44,7.49.85,1.6,2.57,2.1,5.16,1.5,2.08-.48,3.38-.88,3.91-1.21.52-.33.76-.87.72-1.61-.35-.1-.93-.29-1.76-.56s-1.45-.48-1.88-.62l1.5-5.3c3.12.87,5.1,1.4,5.91,1.58.82.19,1.53.28,2.14.28Z"/>
				<path class="cls-3" d="M24.6,67.02v-5.58h9.5v5.58h-9.5Z"/>
				<path class="cls-3"
							d="M50.97,61.44v5.58c-1.53,0-2.79-.43-3.77-1.3-.72.74-1.54,1.21-2.48,1.4-.94.19-1.91.03-2.91-.47l-3.12-1.61c-1.27,1.32-2.79,1.99-4.56,1.99h-.34v-5.58h.34c.88,0,1.48-.29,1.81-.87l2.3-4.47c.78-1.53,1.89-2.54,3.34-3.02,1.45-.49,2.9-.34,4.35.45,1.04.58,1.85,1.43,2.42,2.56.57,1.13.87,2.37.89,3.74,0,1.08.58,1.61,1.75,1.61ZM44.32,61.96c.9-1.84.85-3.04-.15-3.6-.9-.5-1.71-.03-2.42,1.4l-.37.71,2.94,1.49Z"/>
				<path class="cls-3"
							d="M59.21,61.44h.61v5.58h-.61c-1.45,0-2.73-.42-3.83-1.27-1.1.85-2.44,1.27-4.01,1.27h-.77v-5.58h.77c.61,0,1.02-.07,1.21-.2.19-.13.28-.38.26-.73l-.58-15.39,4.9-.25.58,15.2c.02.54.14.9.35,1.09s.59.28,1.12.28Z"/>
				<path class="cls-3" d="M59.52,67.02v-5.58h9.5v5.58h-9.5Z"/>
				<path class="cls-3"
							d="M80.74,52.94l7.69,4.37-.67,6.42-8.85,2.36c-2.43.62-5.78.93-10.05.93h-.15v-5.58h.18c3.96,0,6.89-.25,8.79-.74l4.63-1.02-3.95-1.83c-.59-.29-1.21-.35-1.85-.19-.64.17-1.14.54-1.49,1.12l-.52.96-4.29-2.73.61-1.12c1.06-1.94,2.52-3.19,4.36-3.72,1.85-.54,3.7-.28,5.56.78Z"/>
			</g>
			<g>
				<rect class="cls-2" x="93.91" width="80.97" height="80.97" rx="20.62"
							ry="20.62"/>
				<path class="cls-1"
							d="M134.39,5.77c-19.16,0-34.7,15.54-34.7,34.7,0,17.25,12.58,31.55,29.06,34.24v3.5h3.66v-28.86h-3.66v3.77c-2.89-.24-5.87-.7-8.91-1.36-5.09-1.32-10.11-1.98-15.04-1.87-.59-1.86-1.01-3.79-1.24-5.76,5.08-.24,10.85.7,17.03,2.35,8.8,1.53,17.43,1.44,25.91-.15,6.54-1.91,12.84-2.88,18.69-2.06-.24,2-.68,3.96-1.29,5.85-5.8-.85-11.88-.16-18.17,1.56-1.94.55-3.92.96-5.96,1.23v-2.47h-3.66v30.92h3.66v-6.6c16.61-2.58,29.32-16.95,29.32-34.28,0-19.16-15.54-34.7-34.7-34.7ZM128.76,71c-5.81-1.06-11.18-3.75-15.56-7.86,3.19-.28,6.31.53,9.43,2.06,2.04.7,4.08,1.21,6.12,1.52v4.27ZM119.32,55.65c3.15.85,6.29,1.41,9.44,1.69v5.19c-1.86-.26-3.77-.67-5.71-1.21-4.11-1.37-9.19-2.07-13.24-1.9-1.38-1.79-2.56-3.71-3.51-5.72,3.99-.26,8.37.5,13.02,1.96ZM139.77,71.04v-4.55c1.81-.35,3.62-.85,5.42-1.51,3.75-1.21,7.03-1.6,9.79-1.29-4.33,3.85-9.57,6.37-15.21,7.36ZM158.15,60.44c-4.47-.77-10.19-.85-14.87.8-1.14.42-2.31.75-3.5,1.01v-5.11c2.81-.35,5.61-.92,8.42-1.72,4.98-1.25,10.38-1.69,14.1-1.32-1.1,2.26-2.49,4.38-4.14,6.34ZM141.08,43.56c-4.46.58-9.02.63-13.63.15v-11.37h13.63v11.22ZM146.38,42.59v-26.26h-5.3v11.18h-13.63v-8.69l-5.04-.25v24.39c-.48-.09-.95-.18-1.42-.28-5.48-1.55-11.38-2.13-17.62-1.92,0-.09,0-.19,0-.28,0-8.29,3.23-16.08,9.09-21.94,5.86-5.86,13.65-9.09,21.94-9.09s16.08,3.23,21.94,9.09,9.09,13.65,9.09,21.94c0,.06,0,.13,0,.19-6.64-.54-13,.08-19.05,1.92Z"/>
			</g>
		</g>
	</g>
</svg>
