<?xml version="1.0" encoding="UTF-8"?>
<svg id="Layer_2" data-name="Layer 2" xmlns="http://www.w3.org/2000/svg"
		 viewBox="0 0 306.21 355.43">
	<defs>
		<style>
			.cls-1 {
			font-family: Dana-Black, Dana;
			font-size: 44.71px;
			font-weight: 800;
			}
			
			.cls-1, .cls-2 {
			fill: #fff;
			}
			
			.cls-3 {
			fill: #003554;
			}
		</style>
	</defs>
	<g id="Layer_1-2" data-name="Layer 1">
		<g>
			<rect class="cls-3" width="306.21" height="353.2" rx="39.43" ry="39.43"/>
			<path class="cls-2"
						d="M153.1,20.81c-67.54,0-122.29,54.76-122.29,122.3,0,60.78,44.34,111.2,102.44,120.69v12.33h12.9v-101.73h-12.9v13.3c-10.19-.84-20.68-2.46-31.41-4.8-17.94-4.67-35.62-6.98-52.99-6.6-2.09-6.57-3.55-13.35-4.36-20.29,17.89-.85,38.22,2.47,60.02,8.29,31.02,5.41,61.44,5.07,91.32-.54,23.04-6.74,45.24-10.17,65.87-7.26-.86,7.05-2.39,13.95-4.56,20.62-20.43-2.99-41.88-.57-64.03,5.51-6.83,1.94-13.83,3.37-21.02,4.33v-8.72h-12.9v108.96h12.9v-23.27c58.54-9.11,103.33-59.73,103.33-120.83,0-67.54-54.76-122.3-122.3-122.3ZM133.24,250.7c-20.47-3.74-39.4-13.23-54.83-27.69,11.26-1,22.23,1.87,33.25,7.26,7.2,2.48,14.39,4.27,21.58,5.37v15.06ZM99.98,196.59c11.09,2.99,22.18,4.97,33.27,5.95v18.3c-6.57-.92-13.29-2.35-20.13-4.26-14.49-4.83-32.38-7.29-46.67-6.71-4.87-6.3-9.01-13.06-12.36-20.18,14.06-.92,29.51,1.76,45.9,6.89ZM172.07,250.86v-16.04c6.38-1.23,12.74-3.01,19.11-5.33,13.23-4.26,24.79-5.65,34.51-4.56-15.27,13.58-33.73,22.47-53.62,25.93ZM236.84,213.49c-15.77-2.7-35.91-2.98-52.42,2.83-4.03,1.47-8.15,2.64-12.34,3.54v-18c9.89-1.22,19.79-3.24,29.67-6.06,17.54-4.4,36.57-5.94,49.68-4.66-3.89,7.95-8.77,15.45-14.59,22.35ZM176.66,153.98c-15.72,2.05-31.78,2.23-48.02.53v-40.07h48.02v39.54ZM195.35,150.57V58.03h-18.68v39.4h-48.02v-30.62l-17.78-.89v85.98c-1.68-.31-3.35-.64-5.02-1-19.32-5.48-40.12-7.5-62.11-6.78,0-.33,0-.66,0-1,0-29.22,11.38-56.69,32.03-77.34,20.66-20.66,48.12-32.04,77.34-32.04s56.69,11.39,77.34,32.04,32.04,48.12,32.04,77.34c0,.22,0,.45,0,.67-23.42-1.91-45.81.3-67.13,6.78Z"/>
			<text class="cls-1" transform="translate(37.94 323.37)">
				<tspan x="0" y="0">هیدرو حلمی</tspan>
			</text>
		</g>
	</g>
</svg>
