<svg xmlns="http://www.w3.org/2000/svg"
		 version="1.1" width="310" height="309.01">
	<svg id="SvgjsSvg1003" data-name="Layer 2" xmlns="http://www.w3.org/2000/svg"
			 viewBox="0 0 310 309.01">
		<defs>
			<style>
				.cls-1 {
				fill: #fff;
				}
				
				.cls-2 {
				fill: #003554;
				}
			</style>
		</defs>
		<g id="SvgjsG1002" data-name="Layer 1">
			<g>
				<rect class="cls-2" width="310" height="307.55" rx="40.21"
							ry="40.21"></rect>
				<path class="cls-1"
							d="M155,21.93c-73.37,0-132.84,59.01-132.84,131.8,0,65.5,48.16,119.84,111.27,130.06v13.28h14.01v-109.62h-14.01v14.34c-11.07-.9-22.46-2.65-34.12-5.17-19.48-5.03-38.69-7.53-57.56-7.11-2.26-7.08-3.86-14.39-4.74-21.86,19.43-.91,41.52,2.66,65.19,8.94,33.69,5.83,66.73,5.47,99.2-.59,25.02-7.27,49.15-10.96,71.55-7.82-.93,7.6-2.6,15.03-4.95,22.22-22.19-3.22-45.49-.62-69.55,5.94-7.42,2.09-15.02,3.63-22.83,4.66v-9.4h-14.01v117.42h14.01v-25.08c63.59-9.81,112.24-64.37,112.24-130.21,0-72.79-59.48-131.8-132.85-131.8ZM133.43,269.66c-22.24-4.03-42.79-14.26-59.56-29.84,12.23-1.07,24.14,2.02,36.12,7.82,7.82,2.67,15.63,4.6,23.44,5.79v16.23ZM97.29,211.35c12.05,3.22,24.09,5.36,36.14,6.41v19.73c-7.14-.99-14.43-2.54-21.87-4.59-15.74-5.2-35.18-7.85-50.7-7.23-5.29-6.79-9.79-14.08-13.43-21.74,15.27-.99,32.06,1.9,49.86,7.43ZM175.6,269.83v-17.28c6.92-1.32,13.84-3.24,20.75-5.75,14.37-4.59,26.93-6.08,37.49-4.91-16.59,14.64-36.64,24.21-58.25,27.94ZM245.95,229.56c-17.13-2.91-39-3.21-56.94,3.05-4.38,1.58-8.85,2.84-13.41,3.82v-19.4c10.74-1.31,21.5-3.49,32.23-6.53,19.05-4.74,39.73-6.4,53.97-5.02-4.23,8.57-9.53,16.65-15.84,24.08ZM180.59,165.44c-17.08,2.21-34.52,2.41-52.16.57v-43.18h52.16v42.61ZM200.88,161.76V62.03h-20.29v42.45h-52.16v-33l-19.31-.96v92.65c-1.82-.34-3.64-.69-5.45-1.07-20.99-5.91-43.58-8.08-67.47-7.31,0-.36-.01-.72-.01-1.07,0-31.49,12.36-61.09,34.8-83.35,22.44-22.26,52.27-34.53,84.01-34.53s61.57,12.27,84.01,34.53,34.81,51.86,34.81,83.35c0,.24-.01.49-.01.73-25.44-2.06-49.76.32-72.92,7.31Z"></path>
			</g>
		</g>
	</svg>
	<style>@media (prefers-color-scheme: light) { :root { filter: none; } }
		@media (prefers-color-scheme: dark) { :root { filter: none; } }
	</style>
</svg>
